<svg xmlns="http://www.w3.org/2000/svg" xmlns:xlink="http://www.w3.org/1999/xlink" viewBox="0 0 430 430" width="430" height="430" preserveAspectRatio="xMidYMid meet" style="width: 100%; height: 100%; transform: translate3d(0px, 0px, 0px); content-visibility: visible;"><defs><clipPath id="__lottie_element_10"><rect width="430" height="430" x="0" y="0"/></clipPath><clipPath id="__lottie_element_12"><path d="M0,0 L430,0 L430,430 L0,430z"/></clipPath><g id="__lottie_element_56"><g transform="matrix(1,0,0,1,325,330)" opacity="1" style="display: block;"><g opacity="1" transform="matrix(1,0,0,1,0,0)"><path fill="rgb(255,0,0)" fill-opacity="1" d=" M44.715999603271484,53.85900115966797 C60.165000915527344,41.01900100708008 70,21.658000946044922 70,0 C70,-38.65999984741211 38.65999984741211,-70 0,-70 C-38.65999984741211,-70 -70,-38.65999984741211 -70,0 C-70,21.656999588012695 -60.165000915527344,41.016998291015625 -44.71699905395508,53.856998443603516 C-32.5890007019043,63.9379997253418 -17.003000259399414,70 0,70 C17.00200080871582,70 32.5890007019043,63.93899917602539 44.715999603271484,53.85900115966797z"/></g></g></g><g id="__lottie_element_62"><g transform="matrix(1,0,0,1,325,330)" opacity="1" style="display: block;"><g opacity="1" transform="matrix(1,0,0,1,0,0)"><path fill="rgb(255,0,0)" fill-opacity="1" d=" M44.715999603271484,53.85900115966797 C60.165000915527344,41.01900100708008 70,21.658000946044922 70,0 C70,-38.65999984741211 38.65999984741211,-70 0,-70 C-38.65999984741211,-70 -70,-38.65999984741211 -70,0 C-70,21.656999588012695 -60.165000915527344,41.016998291015625 -44.71699905395508,53.856998443603516 C-32.5890007019043,63.9379997253418 -17.003000259399414,70 0,70 C17.00200080871582,70 32.5890007019043,63.93899917602539 44.715999603271484,53.85900115966797z"/></g></g></g><mask id="__lottie_element_62_1" mask-type="alpha"><use xmlns:ns1="http://www.w3.org/1999/xlink" ns1:href="#__lottie_element_62"/></mask><mask id="__lottie_element_56_1" mask-type="alpha"><use xmlns:ns2="http://www.w3.org/1999/xlink" ns2:href="#__lottie_element_56"/></mask></defs><g clip-path="url(#__lottie_element_10)"><g clip-path="url(#__lottie_element_12)" transform="matrix(1,0,0,1,0,0)" opacity="1" style="display: block;"><g transform="matrix(1,0,0,1,-35,-35)" opacity="1" style="display: block;"/><g transform="matrix(1,0,0,1,215,75)" opacity="1" style="display: block;"><g opacity="1" transform="matrix(1,0,0,1,0,0)"><path class="primary" fill="rgb(18,19,49)" fill-opacity="1" d=" M-55,-28.5 C-67.97899627685547,-28.5 -78.5,-17.979000091552734 -78.5,-5 C-78.5,-5 -78.5,25 -78.5,25 C-78.5,26.933000564575195 -76.93299865722656,28.5 -75,28.5 C-73.06700134277344,28.5 -71.5,26.933000564575195 -71.5,25 C-71.5,25 -71.5,-5 -71.5,-5 C-71.5,-14.11299991607666 -64.11299896240234,-21.5 -55,-21.5 C-55,-21.5 55,-21.5 55,-21.5 C64.11299896240234,-21.5 71.5,-14.11299991607666 71.5,-5 C71.5,-5 71.5,25 71.5,25 C71.5,26.933000564575195 73.06700134277344,28.5 75,28.5 C76.93299865722656,28.5 78.5,26.933000564575195 78.5,25 C78.5,25 78.5,-5 78.5,-5 C78.5,-17.979000091552734 67.97899627685547,-28.5 55,-28.5 C55,-28.5 -55,-28.5 -55,-28.5z"/></g></g><g transform="matrix(1,0,0,1,215,230)" opacity="1" style="display: block;"><g opacity="1" transform="matrix(1,0,0,1,0,0)"><path class="secondary" fill="rgb(178,104,54)" fill-opacity="1" d=" M145,130 C161.56900024414062,130 175,116.56900024414062 175,100 C175,100 175,-100 175,-100 C175,-116.56900024414062 161.56900024414062,-130 145,-130 C145,-130 -145,-130 -145,-130 C-161.56900024414062,-130 -175,-116.56900024414062 -175,-100 C-175,-100 -175,100 -175,100 C-175,116.56900024414062 -161.56900024414062,130 -145,130 C-145,130 145,130 145,130z"/></g></g><g transform="matrix(1,0,0,1,72.5,230)" opacity="0.4" style="mix-blend-mode: multiply; display: block;"><g opacity="1" transform="matrix(1,0,0,1,0,0)"><path class="secondary" fill="rgb(178,104,54)" fill-opacity="1" d=" M2.5,100 C2.5,116.56900024414062 15.930999755859375,130 32.5,130 C32.5,130 -2.5,130 -2.5,130 C-19.069000244140625,130 -32.5,116.56900024414062 -32.5,100 C-32.5,100 -32.5,-100 -32.5,-100 C-32.5,-116.56900024414062 -19.069000244140625,-130 -2.5,-130 C-2.5,-130 32.5,-130 32.5,-130 C15.930999755859375,-130 2.5,-116.56900024414062 2.5,-100 C2.5,-100 2.5,100 2.5,100z"/></g></g><g transform="matrix(1,0,0,1,215,297.5)" opacity="0.4" style="mix-blend-mode: multiply; display: block;"><g opacity="1" transform="matrix(1,0,0,1,0,0)"><path class="secondary" fill="rgb(178,104,54)" fill-opacity="1" d=" M175,32.5 C175,49.069000244140625 161.56900024414062,62.5 145,62.5 C145,62.5 -145,62.5 -145,62.5 C-161.56900024414062,62.5 -175,49.069000244140625 -175,32.5 C-175,32.5 -175,-62.5 -175,-62.5 C-175,-62.5 175,-62.5 175,-62.5 C175,-62.5 175,32.5 175,32.5z"/></g></g><g transform="matrix(1,0,0,1,218,255)" opacity="1" style="display: block;"><g opacity="1" transform="matrix(1,0,0,1,0,0)"><path class="tertiary" fill="rgb(255,199,56)" fill-opacity="1" d=" M45,-20 C45,-20 -45,-20 -45,-20 M45,-20 C45,-20 45,17 45,17 C45,18.656999588012695 43.65700149536133,20 42,20 C42,20 -42,20 -42,20 C-43.65700149536133,20 -45,18.656999588012695 -45,17 C-45,17 -45,-20 -45,-20"/></g></g><g transform="matrix(1,0,0,1,195.5,255)" opacity="0.5" style="mix-blend-mode: multiply; display: block;"><g opacity="1" transform="matrix(1,0,0,1,0,0)"><path class="tertiary" fill="rgb(255,199,56)" fill-opacity="1" d=" M-22.5,-20 C-22.5,-20 -22.5,17 -22.5,17 C-22.5,18.656999588012695 -21.156999588012695,20 -19.5,20 C-19.5,20 22.5,20 22.5,20 C22.5,20 22.5,-20 22.5,-20 C22.5,-20 -22.5,-20 -22.5,-20z"/></g></g><g transform="matrix(1,0,0,1,215,235)" opacity="1" style="display: block;"><g opacity="1" transform="matrix(1,0,0,1,0,0)"><path stroke-linecap="round" stroke-linejoin="round" fill-opacity="0" class="primary" stroke="rgb(18,19,49)" stroke-opacity="1" stroke-width="7" d=" M175,0 C175,0 -175,0 -175,0"/></g></g><g transform="matrix(1,0,0,1,218,255)" opacity="1" style="display: block;"><g opacity="1" transform="matrix(1,0,0,1,0,0)"><path stroke-linecap="round" stroke-linejoin="round" fill-opacity="0" class="primary" stroke="rgb(18,19,49)" stroke-opacity="1" stroke-width="7" d=" M45,-20 C45,-20 45,20 45,20 C45,20 -45,20 -45,20 C-45,20 -45,-20 -45,-20"/></g></g><g transform="matrix(1,0,0,1,215,230)" opacity="1" style="display: block;"><g opacity="1" transform="matrix(1,0,0,1,0,0)"><path stroke-linecap="round" stroke-linejoin="round" fill-opacity="0" class="primary" stroke="rgb(18,19,49)" stroke-opacity="1" stroke-width="7" d=" M145,130 C161.56900024414062,130 175,116.56900024414062 175,100 C175,100 175,-100 175,-100 C175,-116.56900024414062 161.56900024414062,-130 145,-130 C145,-130 -145,-130 -145,-130 C-161.56900024414062,-130 -175,-116.56900024414062 -175,-100 C-175,-100 -175,100 -175,100 C-175,116.56900024414062 -161.56900024414062,130 -145,130 C-145,130 145,130 145,130z"/></g></g><g transform="matrix(1,0,0,1,325,330)" opacity="1" style="display: block;"><g opacity="1" transform="matrix(1,0,0,1,0,0)"><path class="quinary" fill="rgb(235,230,239)" fill-opacity="1" d=" M44.715999603271484,53.85900115966797 C60.165000915527344,41.01900100708008 70,21.658000946044922 70,0 C70,-38.65999984741211 38.65999984741211,-70 0,-70 C-38.65999984741211,-70 -70,-38.65999984741211 -70,0 C-70,21.656999588012695 -60.165000915527344,41.016998291015625 -44.71699905395508,53.856998443603516 C-32.5890007019043,63.9379997253418 -17.003000259399414,70 0,70 C17.00200080871582,70 32.5890007019043,63.93899917602539 44.715999603271484,53.85900115966797z"/></g></g><g transform="matrix(1,0,0,1,325.0679931640625,315.02301025390625)" opacity="1" style="display: block;"><g opacity="1" transform="matrix(1,0,0,1,0,0)"><path class="tertiary" fill="rgb(255,199,56)" fill-opacity="1" d=" M0,-25 C-13.807000160217285,-25 -25,-13.807000160217285 -25,0 C-25,0 -25,0 -25,0 C-25,13.807000160217285 -13.807000160217285,25 0,25 C13.807000160217285,25 25,13.807000160217285 25,0 C25,0 25,0 25,0 C25,-13.807000160217285 13.807000160217285,-25 0,-25z"/></g><g opacity="0.5" transform="matrix(1,0,0,1,-5,0)" style="mix-blend-mode: multiply;"><path class="tertiary" fill="rgb(255,199,56)" fill-opacity="1" d=" M-5.000999927520752,-5 C-5.000999927520752,-13.178000450134277 -1.0750000476837158,-20.43899917602539 4.995999813079834,-25 C-8.8100004196167,-24.999000549316406 -20.000999450683594,-13.805999755859375 -20.000999450683594,0 C-20.000999450683594,13.807000160217285 -8.807999610900879,25 4.999000072479248,25 C10.628000259399414,25 15.821999549865723,23.139999389648438 20.000999450683594,20 C20.000999450683594,20 19.999000549316406,20 19.999000549316406,20 C6.191999912261963,20 -5.000999927520752,8.807000160217285 -5.000999927520752,-5z"/></g></g><g mask="url(#__lottie_element_56_1)" style="display: block;"><g transform="matrix(1,0,0,1,325,375)" opacity="1"><g opacity="1" transform="matrix(1,0,0,1,0,0)"><path class="quaternary" fill="rgb(75,179,253)" fill-opacity="1" d=" M-17.777999877929688,-25 C-34.30099868774414,-25 -48.19200134277344,-13.680999755859375 -52.18299865722656,1.6579999923706055 C-49.875999450683594,4.236999988555908 -47.380001068115234,6.644000053405762 -44.71699905395508,8.857000350952148 C-32.5890007019043,18.937999725341797 -17.003000259399414,25 0,25 C17.00200080871582,25 32.5890007019043,18.93899917602539 44.715999603271484,8.859000205993652 C47.37900161743164,6.644999980926514 49.875,4.23799991607666 52.18299865722656,1.659000039100647 C48.19200134277344,-13.680000305175781 34.301998138427734,-25 17.77899932861328,-25 C17.77899932861328,-25 -17.777999877929688,-25 -17.777999877929688,-25z"/></g><g opacity="0.5" transform="matrix(1,0,0,1,-18.7189998626709,-5.25)" style="mix-blend-mode: multiply;"><path class="quaternary" fill="rgb(75,179,253)" fill-opacity="1" d=" M-33.470001220703125,6.9019999504089355 C-29.479000091552734,-8.437000274658203 -15.588000297546387,-19.756000518798828 0.9350000023841858,-19.756000518798828 C0.9350000023841858,-19.756000518798828 33.470001220703125,-19.756000518798828 33.470001220703125,-19.756000518798828 C8.78600025177002,-19.756000518798828 -11.994000434875488,-3.010999917984009 -18.15999984741211,19.756000518798828 C-20.906999588012695,18.049999237060547 -23.527999877929688,16.159000396728516 -26.003999710083008,14.10099983215332 C-28.66699981689453,11.887999534606934 -31.163000106811523,9.480999946594238 -33.470001220703125,6.9019999504089355z"/></g></g></g><g mask="url(#__lottie_element_62_1)" style="display: block;"><g transform="matrix(1,0,0,1,325,375)" opacity="1"><path stroke-linecap="round" stroke-linejoin="round" fill-opacity="0" class="primary" stroke="rgb(18,19,49)" stroke-opacity="1" stroke-width="7" d=" M-17.777999877929688,-25 C-34.30099868774414,-25 -48.19200134277344,-13.680999755859375 -52.18299865722656,1.6579999923706055 C-49.875999450683594,4.236999988555908 -47.380001068115234,6.644000053405762 -44.71699905395508,8.857000350952148 C-32.5890007019043,18.937999725341797 -17.003000259399414,25 0,25 C17.00200080871582,25 32.5890007019043,18.93899917602539 44.715999603271484,8.859000205993652 C47.37900161743164,6.644999980926514 49.875,4.23799991607666 52.18299865722656,1.659000039100647 C48.19200134277344,-13.680000305175781 34.301998138427734,-25 17.77899932861328,-25 C17.77899932861328,-25 -17.777999877929688,-25 -17.777999877929688,-25z"/><g opacity="1" transform="matrix(1,0,0,1,0,0)"/></g></g><g transform="matrix(1,0,0,1,325,330)" opacity="1" style="display: block;"><path stroke-linecap="round" stroke-linejoin="round" fill-opacity="0" class="primary" stroke="rgb(18,19,49)" stroke-opacity="1" stroke-width="7" d=" M44.715999603271484,53.85900115966797 C60.165000915527344,41.01900100708008 70,21.658000946044922 70,0 C70,-38.65999984741211 38.65999984741211,-70 0,-70 C-38.65999984741211,-70 -70,-38.65999984741211 -70,0 C-70,21.656999588012695 -60.165000915527344,41.016998291015625 -44.71699905395508,53.856998443603516 C-32.5890007019043,63.9379997253418 -17.003000259399414,70 0,70 C17.00200080871582,70 32.5890007019043,63.93899917602539 44.715999603271484,53.85900115966797z"/><g opacity="1" transform="matrix(1,0,0,1,0,0)"/></g><g transform="matrix(1,0,0,1,325.0679931640625,315.02301025390625)" opacity="1" style="display: block;"><path stroke-linecap="round" stroke-linejoin="round" fill-opacity="0" class="primary" stroke="rgb(18,19,49)" stroke-opacity="1" stroke-width="7" d=" M0,-25 C-13.807000160217285,-25 -25,-13.807000160217285 -25,0 C-25,0 -25,0 -25,0 C-25,13.807000160217285 -13.807000160217285,25 0,25 C13.807000160217285,25 25,13.807000160217285 25,0 C25,0 25,0 25,0 C25,-13.807000160217285 13.807000160217285,-25 0,-25z"/><g opacity="1" transform="matrix(1,0,0,1,0,0)"/></g></g></g></svg>